<?xml version="1.0" standalone="no"?>
<!DOCTYPE svg PUBLIC "-//W3C//DTD SVG 20010904//EN"
 "http://www.w3.org/TR/2001/REC-SVG-20010904/DTD/svg10.dtd">
<svg version="1.0" xmlns="http://www.w3.org/2000/svg"
 width="300.000000pt" height="243.000000pt" viewBox="0 0 300.000000 243.000000"
 preserveAspectRatio="xMidYMid meet">
<metadata>
Created by potrace 1.10, written by Peter Selinger 2001-2011
</metadata>
<g transform="translate(0.000000,243.000000) scale(0.100000,-0.100000)"
fill="#000000" stroke="none">
<path d="M125 2268 c-49 -28 -59 -78 -24 -122 20 -26 21 -26 165 -26 79 0 144
-3 144 -7 0 -5 75 -361 166 -793 151 -718 167 -787 190 -807 l25 -23 854 0
854 0 27 23 c30 26 17 -40 144 737 34 206 62 390 63 409 1 25 -6 40 -27 57
-34 30 -68 30 -101 2 -24 -22 -29 -47 -110 -542 -47 -285 -85 -520 -85 -522 0
-2 -344 -4 -765 -4 -421 0 -765 2 -765 4 0 3 -41 197 -91 433 -49 235 -124
587 -165 781 -40 194 -79 362 -85 373 -5 11 -21 24 -35 29 -37 14 -354 12
-379 -2z m379 -31 c17 -12 45 -117 62 -227 3 -19 9 -48 14 -65 5 -16 12 -46
15 -65 11 -60 21 -110 50 -240 15 -69 29 -134 31 -145 2 -11 10 -50 18 -86 8
-36 17 -77 20 -90 3 -13 9 -46 15 -74 75 -379 122 -582 138 -604 10 -14 83
-16 772 -18 722 -3 762 -2 779 15 17 17 43 133 58 257 3 27 8 53 11 58 3 6 8
37 10 70 2 33 8 68 13 78 6 10 10 30 10 46 0 31 38 269 47 293 3 8 7 28 8 43
16 166 40 230 83 222 9 -2 20 -4 24 -4 4 -1 12 -10 18 -21 8 -14 6 -45 -5
-112 -9 -51 -23 -131 -31 -178 -8 -47 -16 -96 -18 -110 -16 -115 -35 -235 -61
-375 -3 -16 -10 -61 -15 -100 -22 -154 -43 -251 -58 -267 -14 -17 -68 -18
-864 -18 -835 0 -848 0 -868 20 -11 11 -20 26 -21 33 -1 16 -2 25 -49 247 -23
107 -47 224 -55 260 -7 36 -31 151 -54 255 -22 105 -61 288 -86 407 -63 301
-81 378 -94 391 -7 7 -61 11 -144 12 -142 0 -167 7 -167 48 0 11 7 28 16 38
14 16 37 18 188 18 128 1 177 -2 190 -12z"/>
<path d="M2165 2006 c-70 -32 -125 -115 -125 -190 0 -39 -4 -46 -33 -64 -39
-23 -67 -75 -67 -126 l0 -36 -606 0 -606 0 6 -22 c3 -13 6 -26 6 -29 0 -4 13
-9 30 -12 44 -9 105 -71 181 -183 76 -114 108 -144 151 -144 40 0 76 27 128
97 72 96 121 142 157 149 38 7 58 -4 139 -77 86 -78 111 -72 257 58 35 31 69
53 82 53 38 0 71 -52 110 -172 68 -206 115 -268 203 -268 50 0 117 47 149 105
12 22 38 100 57 174 39 142 62 187 102 197 13 3 24 14 24 23 0 9 3 25 6 36 5
19 1 20 -128 17 l-133 -3 -17 -29 c-55 -96 -224 -94 -278 3 -14 26 -14 28 11
50 27 23 83 106 77 113 -8 7 -56 -51 -66 -81 -9 -26 -11 -27 -11 -7 -1 32 16
62 52 93 29 24 33 25 73 13 81 -24 98 -47 97 -128 -1 -33 -7 -46 -38 -74 -41
-38 -41 -49 -1 -31 37 17 68 72 68 119 -1 74 -47 127 -120 140 -36 6 -37 7
-35 47 3 76 56 145 127 164 31 8 48 7 83 -6 44 -17 63 -42 77 -98 10 -41 42
-32 39 11 -4 94 -133 161 -228 118z m-198 -483 c68 -68 183 -76 258 -18 19 14
35 33 35 41 0 16 -3 16 122 18 54 0 98 -3 98 -8 0 -4 -17 -25 -37 -45 -35 -33
-73 -121 -73 -165 0 -31 -62 -198 -82 -222 -32 -35 -77 -60 -116 -63 -26 -1
-40 7 -75 41 -36 37 -48 62 -91 186 -37 107 -57 152 -81 178 -50 53 -79 47
-180 -41 -89 -77 -117 -91 -152 -76 -15 6 -52 34 -80 61 -29 27 -53 47 -53 43
0 -4 -5 -2 -12 5 -19 19 -75 14 -111 -9 -18 -12 -53 -48 -77 -80 -83 -108
-114 -139 -147 -145 -29 -6 -37 -2 -70 34 -21 22 -54 66 -73 97 -64 104 -107
151 -163 180 l-38 20 33 5 c18 3 279 5 579 4 l545 0 41 -41z"/>
<path d="M750 1501 c0 -9 42 -211 110 -536 18 -82 34 -152 37 -155 13 -12 -8
128 -41 280 -44 196 -51 231 -72 333 -9 42 -20 80 -25 83 -5 3 -9 1 -9 -5z"/>
<path d="M2472 1473 c-12 -23 -36 -93 -52 -155 -41 -148 -58 -185 -108 -230
-23 -21 -37 -38 -32 -38 6 0 30 20 54 43 46 46 57 73 111 267 34 123 46 135
23 23 -23 -116 -78 -439 -78 -464 0 -10 4 -19 8 -19 5 0 14 35 20 78 6 42 28
175 47 296 20 120 34 223 32 230 -2 6 -13 -8 -25 -31z"/>
<path d="M1797 1412 c-29 -27 -63 -56 -77 -65 -13 -9 -19 -17 -12 -17 7 0 43
28 80 62 37 34 69 63 71 65 2 2 1 3 -3 3 -4 0 -31 -22 -59 -48z"/>
<path d="M1363 1415 c-11 -8 -44 -46 -73 -85 -29 -39 -68 -84 -89 -101 -36
-31 -36 -31 -5 -15 18 8 58 50 90 93 32 43 70 88 83 101 27 25 25 29 -6 7z"/>
<path d="M1777 917 c-12 -13 -39 -45 -61 -71 -63 -78 -95 -78 -178 0 -65 61
-81 59 -192 -25 -37 -28 -75 -51 -84 -51 -9 0 -46 31 -83 69 -99 105 -130 104
-228 -1 -51 -55 -52 -58 -44 -97 l8 -41 728 -3 c721 -2 728 -2 732 18 9 41 25
139 25 152 0 26 -96 15 -219 -27 -171 -58 -193 -55 -291 44 -30 31 -63 56 -73
56 -10 0 -28 -10 -40 -23z m108 -58 c89 -91 140 -98 297 -43 57 20 122 39 145
41 37 4 42 3 39 -14 -2 -10 -7 -39 -10 -65 -5 -35 -12 -48 -24 -49 -86 -7
-1380 -3 -1389 4 -7 5 -13 18 -13 29 0 24 69 100 83 91 6 -3 7 -1 3 5 -4 6 4
18 18 27 23 15 27 15 63 -3 21 -11 56 -41 77 -67 52 -62 78 -71 131 -48 22 9
42 20 45 23 36 36 72 62 99 70 30 8 36 5 86 -40 95 -86 125 -80 228 44 21 25
46 46 56 46 9 0 39 -23 66 -51z"/>
<path d="M1913 898 c70 -71 96 -87 32 -20 -33 34 -63 62 -67 62 -4 0 12 -19
35 -42z"/>
<path d="M1135 908 c11 -6 47 -36 79 -67 33 -31 54 -47 46 -36 -28 40 -76 87
-102 101 -31 16 -53 19 -23 2z"/>
<path d="M1535 884 c73 -67 88 -78 73 -54 -8 14 -31 34 -49 44 -19 11 -29 15
-24 10z"/>
<path d="M1196 421 c-93 -62 -92 -194 4 -258 84 -57 209 3 226 108 8 50 -25
122 -68 149 -44 26 -122 27 -162 1z m162 -37 c84 -81 31 -214 -85 -214 -54 0
-113 50 -114 96 -2 90 13 117 76 138 44 16 94 7 123 -20z"/>
<path d="M1235 372 c-61 -38 -69 -99 -20 -148 35 -35 88 -33 126 5 38 38 39
80 2 120 -36 39 -70 46 -108 23z m76 -23 c47 -25 40 -98 -12 -120 -26 -10 -34
-9 -57 8 -71 52 -8 154 69 112z"/>
<path d="M1947 422 c-102 -68 -94 -211 15 -268 84 -43 198 20 214 117 8 50
-25 122 -68 149 -43 26 -122 27 -161 2z m158 -32 c44 -37 56 -100 29 -156 -57
-121 -251 -56 -229 76 8 46 31 75 74 93 36 15 100 9 126 -13z"/>
<path d="M2004 385 c-40 -17 -74 -61 -74 -96 0 -15 12 -41 26 -58 36 -43 93
-44 135 -2 47 47 36 103 -29 150 -24 17 -31 18 -58 6z m64 -41 c15 -10 22 -25
22 -49 0 -59 -54 -91 -99 -58 -74 55 1 160 77 107z"/>
<path d="M918 340 c-25 -26 -29 -36 -24 -63 11 -53 27 -61 132 -67 91 -5 95
-4 89 15 -14 49 -17 86 -7 114 l11 31 -85 0 c-82 0 -87 -1 -116 -30z m160 -53
l3 -48 -72 3 c-70 3 -73 4 -82 32 -15 44 17 66 91 63 l57 -2 3 -48z"/>
<path d="M1441 349 c11 -21 8 -98 -5 -129 -5 -13 22 -15 214 -15 l221 0 -8 25
c-10 33 -9 100 1 123 8 16 -6 17 -213 17 l-222 0 12 -21z m387 -61 l3 -48
-182 0 c-161 0 -180 2 -175 16 3 9 6 31 6 50 l0 34 173 -2 172 -3 3 -47z"/>
<path d="M2191 349 c11 -21 8 -98 -5 -129 -5 -13 7 -14 90 -10 85 4 98 8 115
29 21 26 24 68 6 92 -23 30 -56 39 -137 39 -79 0 -81 0 -69 -21z m172 -21 c20
-10 23 -58 5 -76 -7 -7 -41 -12 -81 -12 -60 0 -68 2 -63 18 3 9 7 31 8 49 l2
32 56 -1 c30 0 63 -5 73 -10z"/>
</g>
</svg>
